<?xml version="1.0" encoding="UTF-8"?>
<svg width="375pt" height="375pt" version="1.2" viewBox="0 0 375 375" xmlns="http://www.w3.org/2000/svg" xmlns:xlink="http://www.w3.org/1999/xlink">
<defs>
<symbol id="m" overflow="visible">
<path d="m4.6719-12.219h-4.3594v-2.4062h11.578v2.4062h-4.375v12.219h-2.8438z"/>
</symbol>
<symbol id="l" overflow="visible">
<path d="m1.25-14.922h2.7656v6.125l1.6094-1.6094h3.3125l2.3281 2.3281v8.0781h-2.7656v-7.3281l-0.70312-0.73438h-1.7969l-1.9844 2v6.0625h-2.7656z"/>
</symbol>
<symbol id="k" overflow="visible">
<path d="m1.0469-2.125v-6.1094l2.1562-2.1719h5.8594l2.1719 2.1719v3.9531h-7.4375v1.3281l0.67188 0.70312h3.4062l0.625-0.65625v-0.54688h2.7188v1.3594l-2.0625 2.0938h-6zm7.4375-4.0781v-1.2188l-0.71875-0.71875h-3.25l-0.71875 0.71875v1.2188z"/>
</symbol>
<symbol id="j" overflow="visible"></symbol>
<symbol id="i" overflow="visible">
<path d="m5.4531-14.625h2.5938l5.3438 14.625h-2.875l-1.2031-3.2344h-5.1406l-1.1875 3.2344h-2.875zm3.2344 9.0469-1.9375-5.5625h-0.046875l-1.875 5.5625z"/>
</symbol>
<symbol id="c" overflow="visible">
<path d="m1.25-10.406h2.5469v1.5312l1.5312-1.5312h4.0469l2.1562 2.1719v6.0625l-2.1562 2.1719h-4.0312l-1.3281-1.1094v5.5312h-2.7656zm6.7969 8.0625 0.73438-0.73438v-4.25l-0.73438-0.73438h-2.3594l-1.6719 1.6875v2.5469l1.6406 1.4844z"/>
</symbol>
<symbol id="h" overflow="visible">
<path d="m1.9531-17.062h11.016v1.6562h-9.1719v6h8.4688v1.6562h-8.4688v6.0938h9.1719v1.6562h-11.016z"/>
</symbol>
<symbol id="b" overflow="visible">
<path d="m1.8281-12.141h1.75v2.5781l2.5938-2.5781h3.7188l2.25 2.25v9.8906h-1.8125v-9.3281l-1.2188-1.2031h-2.4531l-3.0312 3.0312v7.5h-1.7969z"/>
</symbol>
<symbol id="g" overflow="visible">
<path d="m12.312-12.141v15.234l-2.2188 2.2188h-6.0156l-1.8906-1.875v-1.4844h1.8125v0.90625l0.84375 0.84375h4.4375l1.2188-1.1875v-4.5312l-2.2344 2.0156h-4.4375l-2.25-2.25v-7.6406l2.25-2.25h4.6094l2.1094 2.125v-2.125zm-1.8125 4.1719-2.5469-2.5625h-3.3438l-1.2188 1.2031v6.5312l1.2188 1.1875h3.3594l2.5312-2.3594z"/>
</symbol>
<symbol id="f" overflow="visible">
<path d="m1.7031-14.922v-1.0625l0.73438-0.73438h1.0781l0.71875 0.73438v1.0625l-0.71875 0.73438h-1.0781zm0.375 2.7812h1.7969v12.141h-1.7969z"/>
</symbol>
<symbol id="a" overflow="visible">
<path d="m1.5781-2.25v-7.6406l2.25-2.25h6.1094l2.2812 2.25v4.3594h-8.8281v2.7344l1.2188 1.1875h4.5625l1.2188-1.1875v-0.9375h1.7969v1.4844l-2.25 2.25h-6.1094zm8.8281-4.8438v-2.2344l-1.2188-1.2031h-4.5781l-1.2188 1.2031v2.2344z"/>
</symbol>
<symbol id="e" overflow="visible">
<path d="m1.8281-12.141h1.75v2.1719l2.1719-2.1719h3.1406v1.6094h-2.6719l-2.5938 2.5781v7.9531h-1.7969z"/>
</symbol>
<symbol id="d" overflow="visible">
<path d="m1.2188-2v-1.5156h1.7969v1l0.98438 0.95312h4.4844l0.96875-0.95312v-1.875l-0.96875-0.96875h-5.25l-1.9219-1.9219v-2.8594l2-2h5.7031l2 2v1.5156h-1.7969v-1l-0.98438-0.95312h-4.1406l-0.96875 0.95312v1.7812l0.96875 0.96875h5.1719l2 2v2.875l-2 2h-6.0469z"/>
</symbol>
<clipPath id="n">
<path d="m77 166h46.996v43h-46.996z"/>
</clipPath>
</defs>
<g clip-path="url(#n)">
<path d="m123.33 187.46-21.426-21.152v-0.023438h-24.809v42.367h24.809v-0.027344zm-38.867 11.465v-22.914h17.441v-1.6484l17.047 11.34-17.051-5.6289v-0.8125h-11.848v16.406h11.848v-0.80859l17.043-5.625-17.043 11.34v-1.6484zm6.5977-6.6211v-9.6758h10.84v-1.4219l17.316 5.7188h-17.316v-1.1484h-6.3008v3.3789h6.3008v-1.1523h17.316l-17.316 5.7188v-1.418zm10.84 14.809v-1.832h-23.797v-35.629h23.797v-1.8359l16.293 16.086-16.293-10.832v-0.42969h-18.449v29.652h18.449v-0.43359l16.309-10.848z" fill="#00ff8a"/>
</g>
<g fill="#fff">
<use x="133.200509" y="180.187752" xlink:href="#m"/>
</g>
<g fill="#fff">
<use x="146.336326" y="180.187752" xlink:href="#l"/>
</g>
<g fill="#fff">
<use x="159.680974" y="180.187752" xlink:href="#k"/>
</g>
<g fill="#fff">
<use x="172.795906" y="180.187752" xlink:href="#j"/>
</g>
<g fill="#fff">
<use x="179.416292" y="180.187752" xlink:href="#i"/>
</g>
<g fill="#fff">
<use x="193.846845" y="180.187752" xlink:href="#c"/>
</g>
<g fill="#fff">
<use x="207.358551" y="180.187752" xlink:href="#c"/>
</g>
<g fill="#00ff8a">
<use x="133.200509" y="207.656588" xlink:href="#h"/>
</g>
<g fill="#00ff8a">
<use x="153.213029" y="207.656588" xlink:href="#b"/>
</g>
<g fill="#00ff8a">
<use x="172.884297" y="207.656588" xlink:href="#g"/>
</g>
<g fill="#00ff8a">
<use x="192.848062" y="207.656588" xlink:href="#f"/>
</g>
<g fill="#00ff8a">
<use x="204.621823" y="207.656588" xlink:href="#b"/>
</g>
<g fill="#00ff8a">
<use x="224.293094" y="207.656588" xlink:href="#a"/>
</g>
<g fill="#00ff8a">
<use x="243.793733" y="207.656588" xlink:href="#a"/>
</g>
<g fill="#00ff8a">
<use x="263.294372" y="207.656588" xlink:href="#e"/>
</g>
<g fill="#00ff8a">
<use x="278.505011" y="207.656588" xlink:href="#d"/>
</g>
</svg>
